<?xml version="1.0" encoding="UTF-8"?><svg id="Layer_2" xmlns="http://www.w3.org/2000/svg" viewBox="0 0 320 120.18"><defs><style>.cls-1{fill:none;}.cls-2,.cls-3{fill:#015a75;}.cls-3{fill-rule:evenodd;}</style></defs><g id="Layer_1-2"><path class="cls-1" d="M152.59,52.69c-3.1,0-5.36-2.39-5.36-5.6s2.26-5.6,5.36-5.6c1.69,.04,3.23,1,4.01,2.5l3.13-1.54c-1.39-2.65-4.17-4.28-7.16-4.2-5.13,0-9.11,3.61-9.11,8.87h0c0,5.27,4,8.84,9.12,8.84,3.77,0,5.93-2.07,7.16-4.2l-3.11-1.55c-.78,1.51-2.33,2.47-4.03,2.49Z"/><path class="cls-1" d="M155.48,78.13c0,2.39-1.38,4.03-4.01,4.03s-4.03-1.64-4.03-4.03v-10.17h-3.73v10.29c0,4.21,2.57,7.14,7.78,7.14s7.73-2.9,7.73-7.16v-10.27h-3.74v10.17Z"/><path class="cls-1" d="M169.25,74.52c-1.85-.44-3.41-.79-3.41-1.9,0-1.02,.87-1.72,2.44-1.72,1.84-.02,3.61,.65,4.98,1.87l2.03-2.68c-1.69-1.56-3.95-2.39-6.68-2.39-4.03,0-6.49,2.36-6.49,5.21,0,3.91,3.59,4.67,6.39,5.31,1.87,.46,3.46,.82,3.46,2.08,0,.97-.98,1.9-2.98,1.9-2.05,0-4.02-.83-5.44-2.31l-1.98,2.77c1.59,1.62,3.95,2.7,7.24,2.74,4.62,0,6.85-2.36,6.85-5.5,0-3.88-3.62-4.72-6.42-5.39Z"/><path class="cls-1" d="M170.38,41.49c1.7,.03,3.25,.99,4.03,2.5l3.13-1.54c-1.39-2.65-4.17-4.28-7.16-4.2-5.13,0-9.11,3.61-9.11,8.87s3.98,8.84,9.11,8.8c3.77,0,5.93-2.07,7.16-4.2l-3.13-1.51c-.78,1.51-2.33,2.47-4.03,2.49-3.1,0-5.36-2.39-5.36-5.6s2.26-5.6,5.36-5.6Z"/><path class="cls-1" d="M137.52,76.25c1.62-.33,2.95-1.77,2.95-3.93,0-2.29-1.66-4.37-4.93-4.37h-9.01v17.13h9.28c3.26,0,4.98-2.06,4.98-4.63,0-2.15-1.45-3.92-3.27-4.2Z"/><path class="cls-1" d="M227.59,47.12c0-5.16-3.72-8.58-9.09-8.58h-6.75v17.12h6.75c5.35,0,9.09-3.38,9.09-8.55Z"/><rect class="cls-1" x="230.37" y="38.55" width="3.65" height="17.12"/><polygon class="cls-1" points="131.33 38.55 124.71 55.67 128.87 55.67 129.94 52.77 137.29 52.77 138.34 55.67 142.5 55.67 135.9 38.55 131.33 38.55"/><polygon class="cls-1" points="208.72 52.46 200.24 52.46 200.24 48.58 208.54 48.58 208.54 45.37 200.24 45.37 200.24 41.76 208.74 41.76 208.74 38.55 196.6 38.55 196.6 55.67 208.72 55.66 208.72 52.46"/><rect class="cls-1" x="178.32" y="67.96" width="3.65" height="17.13"/><path class="cls-1" d="M241.69,74.52c-1.84-.44-3.41-.79-3.41-1.9,0-1.02,.87-1.72,2.44-1.72,1.84-.02,3.61,.65,4.98,1.87l2.03-2.68c-1.7-1.56-3.95-2.39-6.68-2.39-4.03,0-6.49,2.36-6.49,5.21,0,3.91,3.59,4.67,6.39,5.31,1.87,.46,3.46,.82,3.46,2.08,0,.97-.98,1.9-2.98,1.9-2.05,0-4.02-.83-5.44-2.31l-1.97,2.77h0c1.59,1.62,3.95,2.7,7.24,2.74,4.62,0,6.85-2.36,6.85-5.5,0-3.88-3.62-4.72-6.42-5.39Z"/><polygon class="cls-1" points="252.7 55.67 264.82 55.66 264.82 52.46 256.34 52.46 256.34 48.58 264.63 48.58 264.63 45.37 256.34 45.37 256.34 41.76 264.84 41.76 264.84 38.55 252.7 38.55 252.7 55.67"/><path class="cls-1" d="M274.6,38.55h-6.75v17.12h6.75c5.35,0,9.09-3.38,9.09-8.55s-3.73-8.58-9.09-8.58Z"/><polygon class="cls-1" points="236.52 41.76 241.53 41.76 241.53 55.67 245.2 55.67 245.2 41.76 250.18 41.76 250.18 38.55 236.52 38.55 236.52 41.76"/><polygon class="cls-1" points="204.43 85.08 216.54 85.07 216.54 81.87 208.07 81.87 208.07 77.99 216.37 77.99 216.37 74.79 208.07 74.79 208.07 71.17 216.57 71.17 216.57 67.96 204.43 67.96 204.43 85.08"/><path class="cls-1" d="M226.1,74.52c-1.84-.44-3.41-.79-3.41-1.9,0-1.02,.87-1.72,2.44-1.72,1.84-.02,3.61,.65,4.98,1.87l2.02-2.68c-1.7-1.56-3.95-2.39-6.68-2.39-4.03,0-6.5,2.36-6.5,5.21,0,3.91,3.59,4.67,6.39,5.31,1.87,.46,3.46,.82,3.46,2.08,0,.97-.97,1.9-2.98,1.9-2.05,0-4.02-.83-5.44-2.31l-1.97,2.77h0c1.61,1.62,3.97,2.7,7.25,2.74,4.62,0,6.85-2.36,6.85-5.5,0-3.88-3.62-4.72-6.42-5.39Z"/><path class="cls-1" d="M189.59,55.67h4.2s-3.85-6.52-3.85-6.52c1.83-.41,3.73-2.05,3.73-5.08,0-3.18-2.18-5.52-5.75-5.52h-8.01v17.12h3.64v-6.07h2.67l3.36,6.07Z"/><polygon class="cls-1" points="197.2 78.7 189.27 67.96 185.53 67.96 185.53 85.08 189.18 85.08 189.18 73.92 197.34 85.08 200.85 85.08 200.85 67.96 197.2 67.96 197.2 78.7"/><g><path class="cls-2" d="M134.87,77.95h-4.7v3.98h4.7c1.37,0,2.21-.75,2.21-1.98,0-1.08-.77-2-2.21-2Z"/><polygon class="cls-2" points="130.95 49.56 136.29 49.56 133.62 42.19 130.95 49.56"/><path class="cls-2" d="M136.75,72.96v-.02s0,0,0,0c0-1.03-.84-1.87-1.87-1.87-.04,0-.09,0-.14,0h-4.57v3.73h4.57c1.23,0,2-.77,2-1.85Z"/><path class="cls-2" d="M223.87,47.12h.02c0-3.02-1.87-5.36-5.36-5.36h-3.11v10.7h3.11c3.37,0,5.34-2.44,5.34-5.34Z"/><path class="cls-2" d="M189.93,44.07c0-1.44-1.1-2.31-2.57-2.31h-3.82v4.62h3.82c1.48,0,2.57-.87,2.57-2.31Z"/><path class="cls-2" d="M274.62,41.76h-3.1v10.7h3.1c3.37,0,5.34-2.44,5.34-5.34h.02c0-3.02-1.87-5.36-5.36-5.36Z"/><path class="cls-2" d="M304.22,0H15.78C7.13,.01,0,7.13,0,15.78V104.4c0,8.65,7.13,15.77,15.78,15.78H304.22c8.65-.01,15.77-7.13,15.78-15.78V15.78c0-8.65-7.13-15.77-15.78-15.78Zm-73.85,38.55h3.65v17.12h-3.65v-17.12Zm-18.62,0h6.75c5.36,0,9.09,3.41,9.09,8.58s-3.73,8.55-9.09,8.55h-6.75v-17.12Zm-15.15,0h12.14v3.21h-8.49v3.62h8.29v3.21h-8.29v3.87h8.47v3.21h-12.12s0-17.11,0-17.11ZM108.48,117.71H15.78c-7.3,0-13.31-6.01-13.31-13.32V15.78c0-7.3,6.01-13.31,13.31-13.32H108.48V117.71Zm27.33-32.64h-9.28s0-17.12,0-17.12h9.01c3.27,0,4.93,2.08,4.93,4.37,0,2.16-1.34,3.59-2.95,3.93,1.82,.28,3.27,2.05,3.27,4.2,0,2.57-1.72,4.62-4.98,4.62Zm2.53-29.4l-1.05-2.9h-7.34l-1.08,2.9h-4.16l6.62-17.12h4.57l6.6,17.12h-4.16Zm20.88,22.56c0,4.26-2.52,7.16-7.73,7.16s-7.78-2.93-7.78-7.14v-10.29h3.73v10.17c0,2.39,1.4,4.03,4.03,4.03s4.01-1.64,4.01-4.03v-10.17h3.74v10.27Zm-6.65-22.27c-5.12,0-9.12-3.58-9.12-8.84h0c0-5.26,3.98-8.87,9.11-8.87,2.99-.08,5.78,1.55,7.16,4.2l-3.13,1.54c-.78-1.5-2.32-2.46-4.01-2.5-3.1,0-5.36,2.39-5.36,5.6s2.26,5.6,5.36,5.6c1.7-.02,3.25-.98,4.03-2.49l3.11,1.55c-1.23,2.13-3.39,4.2-7.16,4.2Zm16.25,29.44c-3.29-.03-5.65-1.12-7.24-2.74l1.98-2.77c1.42,1.48,3.39,2.32,5.44,2.31,2,0,2.98-.93,2.98-1.9,0-1.26-1.59-1.62-3.46-2.08-2.8-.64-6.39-1.4-6.39-5.31,0-2.85,2.46-5.21,6.49-5.21,2.72,0,4.98,.82,6.68,2.39l-2.03,2.68c-1.37-1.22-3.14-1.89-4.98-1.87-1.56,0-2.44,.7-2.44,1.72,0,1.11,1.56,1.46,3.41,1.9,2.8,.67,6.42,1.52,6.42,5.39,0,3.13-2.23,5.5-6.85,5.5Zm1.56-32.71c1.7-.02,3.25-.98,4.03-2.49l3.13,1.51c-1.23,2.13-3.39,4.2-7.16,4.2-5.13,.04-9.11-3.53-9.11-8.8s3.98-8.87,9.11-8.87c2.99-.08,5.78,1.55,7.16,4.2l-3.13,1.54c-.78-1.51-2.33-2.47-4.03-2.5-3.1,0-5.36,2.39-5.36,5.6s2.26,5.6,5.36,5.6Zm11.58,32.39h-3.65v-17.13h3.65v17.13Zm1.59-29.41h-3.64v-17.12h8.01c3.57,0,5.75,2.33,5.75,5.52s-1.9,4.67-3.73,5.08l3.85,6.54h-4.2s-3.36-6.08-3.36-6.08h-2.67v6.07Zm17.29,29.41h-3.51l-8.17-11.17v11.17h-3.65v-17.13h3.74l7.94,10.74v-10.74h3.64v17.13Zm15.72-13.92h-8.49v3.62h8.29v3.21h-8.29v3.88h8.47v3.21h-12.11s0-17.12,0-17.12h12.14v3.21Zm9.1,14.24c-3.29-.03-5.65-1.12-7.25-2.74h0l1.97-2.77c1.42,1.48,3.39,2.32,5.44,2.31,2,0,2.98-.93,2.98-1.9,0-1.26-1.59-1.62-3.46-2.08-2.8-.64-6.39-1.4-6.39-5.31,0-2.85,2.46-5.21,6.5-5.21,2.72,0,4.98,.82,6.68,2.39l-2.02,2.68c-1.37-1.22-3.15-1.89-4.98-1.87-1.56,0-2.44,.7-2.44,1.72,0,1.11,1.57,1.46,3.41,1.9,2.8,.67,6.42,1.52,6.42,5.39,0,3.13-2.23,5.5-6.85,5.5Zm15.59,0c-3.29-.03-5.65-1.12-7.24-2.74h0l1.97-2.77c1.42,1.48,3.39,2.32,5.44,2.31,2,0,2.98-.93,2.98-1.9,0-1.26-1.59-1.62-3.46-2.08-2.8-.64-6.39-1.4-6.39-5.31,0-2.85,2.46-5.21,6.49-5.21,2.72,0,4.98,.82,6.68,2.39l-2.03,2.68c-1.37-1.22-3.15-1.89-4.98-1.87-1.56,0-2.44,.7-2.44,1.72,0,1.11,1.57,1.46,3.41,1.9,2.8,.67,6.42,1.52,6.42,5.39,0,3.13-2.23,5.5-6.85,5.5Zm8.93-43.65h-4.98v13.92h-3.67v-13.92h-5.01v-3.21h13.66v3.21Zm14.65,0h-8.49v3.62h8.28v3.21h-8.28v3.87h8.47v3.21h-12.12s0-17.11,0-17.11h12.14v3.21Zm9.76,13.92h-6.75v-17.12h6.75c5.36,0,9.09,3.41,9.09,8.58s-3.74,8.55-9.09,8.55Z"/></g><path class="cls-3" d="M38.35,99.01c2.43,1.08,3.63,1.8,4.09,4.82,.78,5.27-4.07,7.28-8.65,7.28h-10.74v-23.03h10.83c3.88,0,7.43,1.77,7.43,6.11,0,2.17-1.13,3.75-2.96,4.83Zm21.5,0c2.43,1.08,3.63,1.8,4.09,4.82,.78,5.27-4.07,7.28-8.65,7.28h-10.74v-23.03h10.83c3.88,0,7.43,1.77,7.43,6.11,0,2.17-1.13,3.75-2.96,4.83Zm25.59,4.82c-.47-3.02-1.66-3.73-4.09-4.82,1.84-1.08,2.97-2.66,2.97-4.83,0-4.34-3.55-6.11-7.43-6.11h-10.83v23.03h10.74c4.58,0,9.44-2,8.66-7.28h0Zm2.99,1.77v-.04c0-2.91,2.39-5.31,5.31-5.31s5.3,2.39,5.31,5.3v.04c0,2.91-2.39,5.31-5.31,5.31s-5.3-2.39-5.31-5.29Zm10.13-.02v-.04c0-2.64-2.18-4.81-4.83-4.81s-4.82,2.18-4.82,4.82v.04c0,2.64,2.18,4.81,4.82,4.81s4.83-2.18,4.83-4.82Zm-6.91-2.89h2.44c.59-.03,1.17,.18,1.61,.57,.29,.28,.45,.66,.44,1.06v.03c0,.88-.59,1.41-1.41,1.6l1.69,2.18h-1l-1.57-2.05h-1.39v2.05h-.81v-5.44Zm-57.44,4.06h-6.29v-5.25h6.29c4.62,0,4.33,5.25,0,5.25Zm21.51,0h-6.28v-5.25h6.27c4.61,0,4.33,5.25,0,5.25h0Zm15.22-5.25v5.25h6.27c4.33,0,4.61-5.25,0-5.25h-6.27Zm23.06,3.86c.76,0,1.29-.35,1.29-.98v-.03c0-.57-.47-.94-1.25-.94h-1.6v1.94h1.55Zm-55.67-6.34h0s0,0,0,0h0Zm21.5,0h0s0,0,0,0h0Zm-31.92-6.53h5.64c3.51,0,3.64,4.91,.22,4.91h-5.86v-4.91Zm43.04,0h5.61c3.52,0,3.64,4.91,.22,4.91h-5.85l.02-4.91Zm-21.52,0h5.63c3.51,0,3.64,4.91,.22,4.91h-5.85v-4.91Zm-16.02-14.7h10.47l1.87,6.35h17.11l1.87-6.35h10.48l-1.37-4.67H34.81l-1.37,4.67Zm12.68-37.64l-5.07,7c-2.54,3.51-1.76,9.71,1.72,12.22l9.41,6.79c1.61,1.17,1.74,2.33,.97,3.55l1.37,1.02,4.77-6.6c2.95-4.08,2.69-9.63-1.68-12.81l-9.5-6.92c-1.13-.83-1.26-1.98-.63-3.27l-1.37-.98h0Zm8.14-30.92l-7.9,10.93c-3.71,5.13-2.36,13.86,2.71,17.6l12.99,9.54c2.63,1.93,2.98,6.86,1.06,9.38l1.1,.83,8.96-12.6c4.02-5.66,3.79-14.03-2.53-18.62l-13.9-10.1c-1.95-1.4-2.92-3.82-1.3-6.11l-1.19-.85Z"/></g></svg>