<?xml version="1.0" encoding="UTF-8"?><svg id="Layer_2" xmlns="http://www.w3.org/2000/svg" viewBox="0 0 1100 1271.32"><defs><style>.cls-1{fill:#f89520;}.cls-2{fill:#f7911f;}.cls-3{fill:#f7901f;}.cls-4{fill:#5b727e;}.cls-5{fill:#5c6f79;}.cls-6{fill:#5d707b;}</style></defs><g id="Layer_1-2"><path class="cls-4" d="M995.31,0H111.69C50,0,0,50,0,111.69V999.47c0,12.12,7.08,23.12,18.12,28.14,0,0,496.42,243.7,536.15,243.7s527.62-241,527.62-241c11.03-5.04,18.11-16.05,18.11-28.19V104.69c0-57.82-46.87-104.69-104.69-104.69Zm44.83,794.71c-10,12.67-38.67,44-38.67,44l6.09,56.83c1.79,16.67-14.7,29.32-30.34,23.27l-53.75-20.77-54,23.33-.04,3.12c-.3,21.98-22.53,36.84-42.95,28.72l-68.34-27.17-78.67,32-1.95,5.23c-6.89,18.48-27.94,27.3-45.95,19.26l-78.77-35.16-79.97,35.08c-18.66,8.18-40.39-.61-48.12-19.46l-2.58-6.29-78-32-68.41,29.6c-20.74,8.97-43.59-7.28-41.92-29.81l.33-4.45-54.67-24.67-48.08,23.25c-17.27,10.25-36.75-3.9-35.86-23.96l4.86-55.54-36.97-42.52c-5.55-6.39-8.63-14.56-8.67-23.02l-3.06-673.79c-.12-25.6,20.61-46.42,46.21-46.42H998.15c27.61,0,50,22.39,50,50V767.38s2,14.67-8,27.33Z"/><path class="cls-1" d="M79.88,776.43l61.05-16.39,35.49-53.53c2.43-3.67,7.84-3.62,10.2,.1l22.97,36.1-10.48,6.51c-17.38,10.79-19.02,33.91-5.11,48.91l46.25,51-2.25,52.25-57.5-23.5-54.85,24.13c-6.3,2.77-13.29-2.16-12.78-9.03l4.38-59.35-40.79-45.78c-3.46-3.89-1.62-10.06,3.41-11.41Z"/><path class="cls-1" d="M296.26,745.38l39.08-67.5c4.62-7.99,16.17-7.95,20.75,.06l31.68,55.44-7.78,4.73c-20,12.14-24.07,39.46-8.47,56.91l55.76,62.37-5.5,76.5-77-31.08-74.21,29.92c-7.02,2.83-14.55-2.72-13.93-10.26l6.65-80.57-51.81-57.74c-6.18-6.89-2.75-17.87,6.25-20.02l78.55-18.74Z"/><path class="cls-1" d="M492.26,736.38l47.24-79.64c5.91-9.97,20.38-9.83,26.11,.24l45.15,79.41,93,20.25c9.71,2.11,13.49,13.94,6.82,21.3l-64.82,71.45,10.06,90.5c1.32,11.84-10.62,20.7-21.57,16.01l-84.13-36.01-86.77,38.12c-8.56,3.76-18.01-3.06-17.14-12.37l9.05-96.24-61.7-66.88c-7.13-7.73-3.4-20.26,6.79-22.84l91.92-23.28Z"/><path class="cls-1" d="M766.09,677.24l40.17,69.14,81.17,19.86c5.83,1.43,8.05,8.54,4.07,13.03l-53.24,60.11,6.58,83.11c.65,8.19-7.58,14.17-15.17,11.04l-74.41-30.73-74.33,30.91-6.67-76.67,57.73-66.01c12.88-14.72,10.91-37.2-4.32-49.47l-11.41-9.18,32.15-55.15c3.95-6.77,13.74-6.77,17.68,.01Z"/><path class="cls-1" d="M893.51,742.88l18.77-33.41c3.8-6.76,13.47-6.95,17.53-.34l31.45,51.25,57.23,13.21c6.46,1.49,8.99,9.33,4.63,14.32l-38.86,44.47,4.67,59.09c.6,7.6-7.17,13.07-14.12,9.92l-52.04-23.52-56.5,22-3-50,48.5-58.35c9.78-11.77,7.69-29.33-4.58-38.47l-13.67-10.18Z"/><path class="cls-5" d="M203.71,304.71l-33.33-32h-43c-7.55,0-13.67-6.12-13.67-13.67v-34.33l38-38,47.67,47.67h33v27.96c0,5.73-4.65,10.37-10.38,10.37h-17.62l-.67,32Z"/><polygon class="cls-2" points="102.46 223.88 84.71 223.88 143.83 164.75 204.21 164.75 263.02 223.56 202.96 223.56 152.86 173.47 102.46 223.88"/><path class="cls-1" d="M126.18,440.32h-35.51v-24.1h98.46v24.1h-35.51v99.54h-27.43v-99.54Z"/><path class="cls-1" d="M251.78,413.08c36.22,0,62.61,25.32,62.61,64.96s-26.39,64.96-62.61,64.96-62.61-25.32-62.61-64.96,26.39-64.96,62.61-64.96Zm0,104.78c21.8,0,36.06-16.77,36.06-39.82s-14.26-39.82-36.06-39.82-36.06,16.77-36.06,39.82,14.26,39.82,36.06,39.82Z"/><path class="cls-1" d="M327.76,416.22h47.43c26.51,0,48.51,8.21,48.51,37.55s-20.38,37.9-47.25,37.9h-20.56v48.2h-28.13v-123.64Zm28.13,52.39h18.76c9.92,0,19.84-3.32,19.84-14.84,0-12.75-13.35-14.49-24.17-14.49h-14.43v29.34Z"/><path class="cls-1" d="M466.52,416.22h50.1c26.51,0,48.82,8.73,48.82,37.55,0,17.29-9.69,30.74-27.98,33.88l32.91,52.22h-34.19l-27.06-49.42h-14.08v49.42h-28.52v-123.64Zm28.52,51.17h16.82c10.42,0,23.95-.35,23.95-13.8,0-12.4-11.7-14.32-22.12-14.32h-18.65v28.12Z"/><path class="cls-1" d="M616.51,416.22h22.23l53.07,123.64h-30.33l-10.51-26.2h-47.39l-10.17,26.2h-29.64l52.73-123.64Zm10.34,35.98l-14.82,38.42h29.81l-14.99-38.42Z"/><path class="cls-1" d="M710.5,440.32h-36.79v-24.1h102v24.1h-36.79v99.54h-28.41v-99.54Z"/><path class="cls-1" d="M785.17,416.22h84.62v25.15h-57.18v23.05h54.01v25.15h-54.01v25.15h60.34v25.15h-87.79v-123.64Z"/><path class="cls-1" d="M887.71,416.22h40.41c39.38,0,72.36,16.94,72.36,62.17,0,39.99-32.3,61.47-68.74,61.47h-44.04v-123.64Zm26.94,98.5h13.99c25.04,0,43.87-9.6,43.87-37.72,0-24.27-19.17-35.63-41.97-35.63h-15.89v73.35Z"/><g><g><path class="cls-3" d="M334.67,279.32v-38.23h-33.91v38.23h-22.8v-91.62h22.8v35.06h33.91v-35.06h22.8v91.62h-22.8Z"/><path class="cls-3" d="M400.33,280.77c-21.79,0-36.36-13.42-36.36-35.78s14.57-35.64,36.21-35.64,36.36,13.27,36.36,35.64-14.57,35.78-36.21,35.78Zm0-54.97c-9.38,0-13.71,8.66-13.71,19.19s4.19,19.33,13.56,19.33,13.71-8.65,13.71-19.33-4.18-19.19-13.56-19.19Z"/><path class="cls-3" d="M527.01,279.32v-39.24c0-7.21-1.87-12.26-8.94-12.26s-10.39,7.36-11.11,11.83v39.68h-22.22v-39.24c0-7.21-1.87-12.26-8.94-12.26s-10.39,7.36-11.11,11.83v39.68h-22.22v-68.53h20.92l1.3,10.53c4.76-7.36,10.96-11.98,20.2-11.98s16.59,4.04,19.76,12.69c5.48-7.5,11.98-12.69,22.36-12.69,14.14,0,22.22,8.95,22.22,25.83v44.15h-22.22Z"/><path class="cls-3" d="M577.81,250.47c.43,10.1,8.23,14.14,16.89,14.14s17.02-4.04,19.76-6.34l7.22,12.84s-9.38,9.67-30.16,9.67-35.92-12.7-35.92-35.64,15.29-35.78,35.78-35.78,32.18,14.43,32.18,35.35v5.77h-45.74Zm12.7-26.55c-8.37,0-12.41,6.35-13.13,13.13h25.25c0-7.07-3.89-13.13-12.12-13.13Z"/></g><g><path class="cls-6" d="M693.89,279.51l-8.4-23.51h-39.61l-8.4,23.51h-10.64l33.17-88.88h12.04l33.45,88.88h-11.62Zm-28.13-78.95l-16.94,46.61h33.74l-16.8-46.61Z"/><path class="cls-6" d="M754.77,279.51l-1.54-10.21c-.28,.42-6.16,11.47-21.83,11.47-16.8,0-27.44-14.28-27.44-33.46s11.9-33.31,28.69-33.31c14.42,0,19.88,10.64,20.58,12.18v-38.36h10.22v91.69h-8.68Zm-20.3-57.25c-12.03,0-19.87,11.34-19.87,25.06s7.28,25.06,19.18,25.06,19.87-11.35,19.87-25.06-7.28-25.06-19.18-25.06Z"/><path class="cls-6" d="M804.45,279.51h-10.78l-24.63-64.11h10.92l19.17,54.03,19.18-54.03h10.78l-24.64,64.11Z"/><path class="cls-6" d="M840.42,201.12c-4.05,0-7.42-3.08-7.42-7.14s3.22-7.28,7.28-7.28,7.42,3.08,7.42,7.14-3.22,7.28-7.28,7.28Zm-5.18,78.39v-64.11h10.23v64.11h-10.23Z"/><path class="cls-6" d="M894.18,274.89c-3.78,3.36-9.66,5.88-18.06,5.88-13.44,0-22.4-8.54-24.64-11.34l6.01-6.3c3.37,3.78,10.65,9.38,18.9,9.38s13.72-3.35,13.72-9.66-6.58-8.53-10.22-9.94c-3.64-1.26-9.38-2.94-12.46-4.33-3.09-1.26-12.74-5.18-12.74-16.24s9.51-18.48,22.81-18.48,21.42,7.97,21.84,8.54l-4.77,7c-3.35-3.36-9.79-7.42-17.07-7.42s-13.16,2.94-13.16,9.1,6.16,8.26,10.5,9.8c4.2,1.54,8.96,2.94,12.03,4.2,3.09,1.26,13.16,5.46,13.16,16.37,0,5.6-2.38,10.22-5.88,13.44Z"/><path class="cls-6" d="M934.2,280.77c-18.06,0-30.37-13.16-30.37-33.31s12.32-33.46,30.37-33.46,30.37,13.16,30.37,33.46-12.17,33.31-30.37,33.31Zm0-58.51c-12.6,0-19.74,10.36-19.74,25.2s7.14,25.05,19.74,25.05,19.73-10.22,19.73-25.05-7.13-25.2-19.73-25.2Z"/><path class="cls-6" d="M1005.3,224.78s-1.68-.84-4.48-.84-6.02,.56-9.51,3.08c-3.64,2.52-7.98,7.84-9.24,15.4v37.09h-10.21v-64.11h9.38l.83,12.88c3.36-7.42,10.79-14.28,19.74-14.28,3.08,0,5.04,.7,5.04,.7l-1.54,10.08Z"/></g></g></g></svg>