<?xml version="1.0" encoding="UTF-8"?><svg id="Layer_2" xmlns="http://www.w3.org/2000/svg" viewBox="0 0 464.45 453.77"><defs><style>.cls-1{fill:#f68f1e;}.cls-2{fill:#5c6f7a;}</style></defs><g id="Layer_2-2"><path class="cls-2" d="m411.43,434.53c0,.08,0,.28-.22.44-.2.15-.35.12-.44.09-49.96-13.07-112.92-20.28-177.29-20.28s-129.4,7.44-179.82,20.95c-.08.02-.24.06-.44-.09-.22-.17-.22-.36-.22-.45v-123.75c-6.25.67-12.25,1.37-18,2.1v121.66c0,5.82,2.65,11.18,7.26,14.73,3.29,2.52,7.21,3.84,11.22,3.84,1.61,0,3.23-.21,4.83-.64,48.94-13.11,111.15-20.34,175.16-20.34s124.22,6.99,172.74,19.69c5.59,1.46,11.42.27,15.99-3.26,4.59-3.54,7.22-8.9,7.22-14.69v-121.3c-5.75-.71-11.76-1.39-18-2.04v123.34h0Z"/><path class="cls-1" d="m156.63,365.18v-13.71h-12.16v13.71h-8.18v-32.86h8.18v12.57h12.16v-12.57h8.18v32.86h-8.18Z"/><path class="cls-1" d="m180.18,365.7c-7.81,0-13.04-4.81-13.04-12.83s5.23-12.78,12.99-12.78,13.04,4.76,13.04,12.78-5.23,12.83-12.99,12.83Zm0-19.71c-3.36,0-4.92,3.1-4.92,6.88s1.5,6.93,4.86,6.93,4.92-3.1,4.92-6.93-1.5-6.88-4.86-6.88Z"/><path class="cls-1" d="m225.61,365.18v-14.07c0-2.59-.67-4.4-3.21-4.4s-3.73,2.64-3.98,4.24v14.23h-7.97v-14.07c0-2.59-.67-4.4-3.21-4.4s-3.73,2.64-3.98,4.24v14.23h-7.97v-24.58h7.5l.47,3.78c1.71-2.64,3.93-4.3,7.24-4.3s5.95,1.45,7.09,4.55c1.97-2.69,4.3-4.55,8.02-4.55,5.07,0,7.97,3.21,7.97,9.26v15.83h-7.97Z"/><path class="cls-1" d="m243.83,354.83c.15,3.62,2.95,5.07,6.06,5.07s6.1-1.45,7.09-2.28l2.59,4.6s-3.36,3.47-10.81,3.47-12.88-4.55-12.88-12.78,5.48-12.83,12.83-12.83,11.54,5.17,11.54,12.68v2.07h-16.42Zm4.55-9.52c-3,0-4.45,2.28-4.71,4.71h9.05c0-2.54-1.4-4.71-4.35-4.71h.01Z"/><path class="cls-2" d="m285.46,365.25l-3.01-8.43h-14.21l-3.01,8.43h-3.82l11.9-31.88h4.32l12,31.88h-4.17,0Zm-10.09-28.31l-6.07,16.72h12.1l-6.02-16.72h-.01Z"/><path class="cls-2" d="m307.29,365.25l-.55-3.66c-.1.15-2.21,4.12-7.83,4.12-6.02,0-9.84-5.12-9.84-12s4.27-11.95,10.29-11.95c5.17,0,7.13,3.82,7.38,4.37v-13.76h3.67v32.88h-3.12Zm-7.28-20.53c-4.32,0-7.13,4.07-7.13,8.99s2.61,8.99,6.88,8.99,7.13-4.07,7.13-8.99-2.61-8.99-6.88-8.99Z"/><path class="cls-2" d="m325.11,365.25h-3.87l-8.83-22.99h3.92l6.88,19.38,6.88-19.38h3.87l-8.84,22.99h-.01Z"/><path class="cls-2" d="m338.01,337.13c-1.45,0-2.66-1.1-2.66-2.56s1.16-2.61,2.61-2.61,2.66,1.1,2.66,2.56-1.15,2.61-2.61,2.61Zm-1.86,28.11v-22.99h3.67v22.99h-3.67Z"/><path class="cls-2" d="m357.28,363.59c-1.36,1.21-3.46,2.11-6.48,2.11-4.82,0-8.03-3.06-8.83-4.07l2.16-2.26c1.21,1.36,3.82,3.36,6.78,3.36s4.92-1.2,4.92-3.46-2.36-3.06-3.66-3.57c-1.31-.45-3.36-1.05-4.47-1.55-1.11-.45-4.57-1.86-4.57-5.82s3.41-6.63,8.18-6.63,7.68,2.86,7.83,3.06l-1.71,2.51c-1.2-1.2-3.51-2.66-6.12-2.66s-4.72,1.05-4.72,3.26,2.21,2.96,3.77,3.51c1.51.55,3.21,1.06,4.31,1.51,1.11.45,4.72,1.96,4.72,5.87,0,2.01-.86,3.66-2.11,4.82h0Z"/><path class="cls-2" d="m371.64,365.7c-6.48,0-10.89-4.72-10.89-11.95s4.42-12,10.89-12,10.89,4.72,10.89,12-4.37,11.95-10.89,11.95Zm0-20.98c-4.52,0-7.08,3.71-7.08,9.04s2.56,8.98,7.08,8.98,7.08-3.67,7.08-8.98-2.56-9.04-7.08-9.04Z"/><path class="cls-2" d="m397.13,345.62s-.6-.3-1.61-.3-2.16.2-3.41,1.1c-1.31.9-2.86,2.81-3.31,5.52v13.3h-3.66v-22.99h3.36l.3,4.62c1.21-2.66,3.87-5.12,7.08-5.12,1.1,0,1.81.25,1.81.25l-.55,3.61h0Z"/><path class="cls-2" d="m107.97,351.53l-1.04-1.04-15.81-15.81-13.69,13.7v13.27c0,1.95,1.58,3.54,3.54,3.54h16.17l12.34,12.34v-12.34h6.91c1.95,0,3.54-1.59,3.54-3.54v-10.12h-11.96Z"/><polygon class="cls-1" points="109.28 326.65 88.1 326.65 66.75 347.99 72.81 347.99 91.12 329.68 109.44 347.99 130.62 347.99 109.28 326.65"/><path class="cls-2" d="m428.96,141.34V45.37c0-11.79-7.9-22.16-19.3-25.16C361.8,7.58,300.56,0,233.8,0S102.93,7.94,54.6,21.1c-11.31,3.08-19.12,13.4-19.12,25.11v95.52c50.34-6.4,120.59-10.37,198.32-10.37s145.05,3.81,195.16,9.97h0Zm-58.73-69.84l6.26-10.55c.78-1.32,2.7-1.3,3.46.03l5.98,10.52,12.32,2.68c1.29.28,1.79,1.85.9,2.82l-8.59,9.47,1.33,11.99c.17,1.57-1.41,2.74-2.86,2.12l-11.15-4.77-11.5,5.05c-1.13.5-2.39-.41-2.27-1.64l1.2-12.75-8.17-8.86c-.94-1.02-.45-2.68.9-3.03l12.18-3.08h0Zm-291.82,0l6.26-10.55c.78-1.32,2.7-1.3,3.46.03l5.98,10.52,12.32,2.68c1.29.28,1.79,1.85.9,2.82l-8.59,9.47,1.33,11.99c.17,1.57-1.41,2.74-2.86,2.12l-11.15-4.77-11.5,5.05c-1.13.5-2.39-.41-2.27-1.64l1.2-12.75-8.17-8.86c-.94-1.02-.45-2.68.9-3.03l12.18-3.08h0Zm53.8,35.96v-56.07h33.2v5.48h-26.49v18.01h24.72v5.47h-24.72v21.46h27.28v5.65h-34,.01Zm49.63,0v-56.07h6.71v50.42h23.13v5.65h-29.85,0Zm42.65,0v-56.07h6.71v56.07h-6.71Zm43.36-50.6v50.6h-6.71v-50.6h-17.31v-5.48h41.24v5.48h-17.22Zm29.94,50.6v-56.07h33.2v5.48h-26.49v18.01h24.72v5.47h-24.72v21.46h27.29v5.65h-34Z"/><path class="cls-1" d="m451.62,289.81l-21.2-63.07,32.85-56.45c3.02-5.19-.07-11.79-5.99-12.8-50.44-8.56-131.94-14.12-223.91-14.12s-176.01,5.74-226.25,14.52c-5.9,1.03-8.96,7.62-5.95,12.79l32.61,56.06-21.33,63.45c-2.04,6.08,3.05,12.17,9.4,11.24,50.86-7.44,126.73-12.17,211.5-12.17s158.09,4.57,208.92,11.79c6.32.9,11.37-5.19,9.33-11.25h.02ZM107.36,203.36c-3.66-2.81-10.56-5.39-15.84-5-5.38.39-7.96,2.17-7.72,5.41.24,3.34,3.95,4.28,5.76,4.8,1.82.61,9.13,2.41,11.03,2.93,1.62.53,4.97,1.6,7.82,3.72,2.85,2.03,5.89,5.35,6.36,11.75s-2.08,11.06-5.49,14.29c-3.32,3.13-8.15,5.91-16.68,6.53-8.63.63-17.77-2.06-23.43-6.69l5.9-11.15c3.95,2.98,11.07,6,16.82,5.58,5.84-.43,8.58-2.49,8.34-5.83-.25-3.43-4.15-4.45-6.24-5.05-2.09-.59-8.18-2.2-9.7-2.65-1.33-.37-5.24-1.48-8.38-3.68-3.04-2.11-6.01-5.72-6.48-12.12s2.72-11.29,6.06-14.06c3.35-2.67,7.4-4.74,15.28-5.31,9.28-.68,17.66,3,21.51,5.99l-4.92,10.52v.02Zm14.26,41.56l-2.61-59,39.77-1.76.5,11.43-25.09,1.11.5,11.24,23.32-1.03.51,11.61-23.32,1.03.57,12.91,26.02-1.15.52,11.8-40.69,1.8h0Zm79.83-2.62l-12.6-21.43-5.95.12.42,21.67-14.69.28-1.14-59.05,23.34-.45c6.23-.12,11.83.79,15.79,3.6,4.05,2.81,7.12,7.58,7.25,14.09.15,7.72-3.46,13.74-10.83,16.95l15.16,23.89-16.74.32h0Zm-5.27-46.22c-1.7-1.08-3.66-1.51-6.26-1.46l-7.53.15.3,15.34,7.53-.15c2.6-.05,4.55-.55,6.2-1.7,1.65-1.33,2.72-3.49,2.67-6.19-.05-2.6-1.21-4.72-2.91-5.99h0Zm54.68,46.07l-16.74-.07-19.11-59.13,15.53.06,12.57,43.3,12.91-43.2,14.42.06-19.58,58.98h0Zm22.88.3l1.27-59.04,14.78.32-1.27,59.04-14.78-.32h0Zm72.76-6.7s-6.72,9.78-22.8,9.13-28.66-11.68-27.85-31.65,15.54-29.81,30.68-29.2c15.15.61,21.35,10.54,21.53,10.83l-7.65,9.56s-4.36-7.25-13.47-7.62c-9.01-.36-15.6,6.07-16.03,16.76s5.42,17.81,14.53,18.18c9.11.37,14.32-6.5,14.32-6.5l6.74,10.51h0Zm3.74,9.42l4.12-58.91,39.71,2.78-.8,11.41-25.05-1.75-.79,11.23,23.29,1.63-.81,11.6-23.29-1.63-.9,12.9,25.98,1.82-.82,11.78-40.63-2.84v-.02Z"/></g></svg>