<?xml version="1.0" encoding="UTF-8"?><svg id="Layer_2" xmlns="http://www.w3.org/2000/svg" viewBox="0 0 489.12 145.1"><defs><style>.cls-1{fill:#84c55c;}.cls-2{fill:#a8cf39;}.cls-3{fill:#0dabc2;}.cls-4{fill:#1ab683;}.cls-5{fill:#25ace2;}.cls-6{fill:#5a5a5a;}</style></defs><g id="Layer_1-2"><g><path class="cls-1" d="M51.6,108.3c.5,5.3,5.7,9,10.8,9.3,5,.2,10.2-3.1,10.2-8.4,0-5.7-5.7-9.8-11-10h-.4c-5.1,0-10.1,3.7-9.6,9.1"/><path class="cls-1" d="M86.5,99.2c-5.4,.2-11,4.3-11,10,0,5.4,5.2,8.7,10.2,8.5,5.1-.3,10.3-4,10.8-9.3,.5-5.5-4.6-9.2-9.6-9.2h-.4"/><path class="cls-1" d="M30.8,105.6c.8,4.7,5,8.8,9.7,9.6,4.6,.8,8.5-2.5,8-7.2-.5-5.2-5.3-9.9-10.5-10.4h-.8c-4.1,.1-7.1,3.7-6.4,8"/><path class="cls-1" d="M109.9,97.7c-5.2,.5-9.9,5.2-10.5,10.4-.5,4.7,3.5,8,8,7.2,4.7-.8,8.9-4.9,9.7-9.6,.8-4.3-2.2-8-6.5-8-.2,0-.5,0-.7,0"/><path class="cls-1" d="M28.5,84c.3,5.1,4.1,10.3,9.4,10.8,5.6,.5,9.4-4.7,9.2-9.9-.2-5.4-4.4-11-10.1-11.1h-.1c-5.3,.1-8.7,5.3-8.4,10.2"/><path class="cls-1" d="M111,73.9c-5.8,0-10,5.7-10.1,11.1-.2,5.2,3.7,10.4,9.2,9.9,5.3-.5,9.2-5.7,9.4-10.8,.3-5-3.1-10.2-8.5-10.2h0"/><path class="cls-1" d="M37.9,50.3c-5.3,.5-9.2,5.7-9.4,10.8-.3,5,3.1,10.2,8.5,10.2,5.8,0,10-5.7,10.1-11.1,.2-5-3.3-9.9-8.5-9.9-.2-.1-.5-.1-.7,0"/><path class="cls-1" d="M100.9,60.2c.2,5.4,4.4,11.1,10.1,11.1,5.4,0,8.8-5.2,8.5-10.2-.3-5.1-4.1-10.3-9.4-10.8h-.7c-5.2-.1-8.7,4.9-8.5,9.9"/><path class="cls-1" d="M40.6,29.8c-4.7,.8-8.9,4.9-9.7,9.6-.8,4.6,2.6,8.4,7.3,8,5.2-.5,9.9-5.2,10.4-10.4,.4-4.2-2.7-7.3-6.7-7.3-.4,0-.9,0-1.3,.1"/><path class="cls-1" d="M99.4,37c.5,5.2,5.3,9.9,10.5,10.4,4.7,.5,8.1-3.3,7.3-8-.8-4.7-5-8.8-9.7-9.6-.5-.1-.9-.1-1.3-.1-4.1,0-7.2,3.1-6.8,7.3"/><path class="cls-1" d="M62.3,27.5c-5.1,.2-10.3,4-10.8,9.3-.5,5.6,4.8,9.3,9.9,9.2,5.4-.2,11-4.3,11-10,0-5.2-4.9-8.5-9.7-8.5h-.4"/><path class="cls-1" d="M75.5,35.9c0,5.7,5.7,9.8,11,10,5.1,.2,10.4-3.6,9.9-9.2-.5-5.3-5.7-9-10.8-9.3h-.5c-4.7,.1-9.6,3.3-9.6,8.5"/><path class="cls-2" d="M50.3,85.1c.2,5.9,5.2,10.9,11.1,11.1,6,.2,11.1-4.8,11.1-10.8s-5.3-11.4-11.4-11.4h0c-6,0-11,5.1-10.8,11.1"/><path class="cls-2" d="M86.9,74c-6.1,0-11.4,5.3-11.4,11.4s5.1,10.9,11.1,10.8c5.9-.1,11-5.2,11.2-11.1,.1-6.1-4.9-11.1-10.9-11.1h0"/><path class="cls-2" d="M61.4,49c-5.9,.2-11,5.2-11.1,11.1-.2,6,4.8,11.1,10.8,11.1s11.4-5.3,11.4-11.4-5-10.8-10.8-10.8h-.3"/><path class="cls-2" d="M75.5,59.7c0,6.1,5.3,11.4,11.4,11.4s11-5.1,10.8-11.1c-.2-5.9-5.2-10.9-11.1-11.1h-.3c-5.9,.1-10.8,4.9-10.8,10.8"/><path class="cls-4" d="M53.8,126.1c.7,4.3,6,6.3,9.8,6.6,3.4,.2,9-1.1,8.9-5.4,0-4.8-6.1-7.1-10.1-7.3h-.5c-3.5-.1-8.9,1.7-8.1,6.1"/><path class="cls-4" d="M85.5,119.9c-3.9,.2-10.1,2.6-10.1,7.3,0,4.3,5.5,5.7,9,5.4,3.8-.3,9.1-2.3,9.8-6.6,.8-4.4-4.6-6.2-8.2-6.2-.1,.1-.3,.1-.5,.1"/><path class="cls-4" d="M34.9,122.4c1.3,3.9,5.6,6.6,9.4,7.5,3,.7,7.6-.1,6.8-4.1-.9-4.4-6-7.5-10.1-8.3-.5-.1-.9-.1-1.4-.1-2.9,0-5.8,1.6-4.7,5"/><path class="cls-4" d="M107,117.5c-4.1,.7-9.2,3.9-10.1,8.2-.8,4,3.8,4.8,6.8,4.1,3.8-.9,8.1-3.6,9.4-7.4,1.2-3.5-1.8-5.1-4.7-5.1-.5,.1-1,.1-1.4,.2"/><path class="cls-4" d="M20.9,117.1c1.5,3.3,4.5,6.4,7.9,7.8,2.7,1.2,5.1,0,4-3.1-1.3-3.7-5-7.3-8.7-8.6-.5-.2-1-.3-1.4-.3-2,0-2.7,2-1.8,4.2"/><path class="cls-4" d="M123.9,113.2c-3.7,1.3-7.4,4.9-8.7,8.6-1.1,3.1,1.3,4.3,4,3.1,3.3-1.4,6.4-4.5,7.9-7.8,1-2.3,.3-4.2-1.7-4.2-.5,0-1,.1-1.5,.3"/><path class="cls-4" d="M15.9,101.8c.9,3.8,3.7,8.1,7.6,9.4,4,1.3,5.6-2.7,5-6-.8-4.1-4-9.2-8.4-10.1-.3-.1-.6-.1-.9-.1-3.2,0-3.9,4-3.3,6.8"/><path class="cls-4" d="M127.9,95.1c-4.4,.9-7.6,5.9-8.4,10.1-.6,3.3,1,7.3,5,6,3.9-1.3,6.7-5.5,7.6-9.4,.7-2.8-.1-6.8-3.3-6.8-.3,0-.6,.1-.9,.1"/><path class="cls-4" d="M13.1,82.6c.3,3.9,2.4,9.1,6.7,9.9,4.7,.8,6.5-5,6.3-8.6-.2-4-2.7-10.1-7.5-10.2h-.1c-4.4,0-5.7,5.5-5.4,8.9"/><path class="cls-4" d="M129.5,73.7c-4.8,.1-7.3,6.1-7.5,10.2-.2,3.6,1.6,9.5,6.3,8.6,4.3-.7,6.5-6,6.7-9.9,.2-3.4-1.2-8.9-5.5-8.9h0"/><path class="cls-4" d="M19.8,52.6c-4.3,.8-6.5,6-6.7,9.9-.3,3.5,1.1,9,5.5,8.9,4.8-.1,7.3-6.1,7.5-10.2,.2-3.4-1.3-8.7-5.4-8.7-.3,0-.6,0-.9,.1"/><path class="cls-4" d="M121.9,61.2c.2,4,2.7,10.1,7.5,10.2,4.4,.1,5.7-5.4,5.5-8.9-.3-3.9-2.4-9.1-6.7-9.9-.3-.1-.6-.1-.9-.1-4,0-5.6,5.3-5.4,8.7"/><path class="cls-4" d="M23.5,33.9c-3.9,1.3-6.7,5.5-7.6,9.4-.7,3,.2,7.5,4.2,6.7,4.4-.9,7.6-5.9,8.4-10.1,.5-2.9-.6-6.2-3.5-6.2-.4,0-.9,0-1.5,.2"/><path class="cls-4" d="M119.4,39.9c.8,4.1,4,9.2,8.4,10.1,4,.8,4.9-3.7,4.2-6.7-.9-3.8-3.7-8.1-7.6-9.4-.5-.2-1-.3-1.5-.3-2.8,.1-4,3.4-3.5,6.3"/><path class="cls-4" d="M28.8,20.2c-3.3,1.4-6.4,4.5-7.9,7.8-1.2,2.7,.1,5,3.2,3.9,3.7-1.3,7.4-4.9,8.7-8.6,.8-2.3-.3-3.5-2.1-3.5-.5-.1-1.2,.1-1.9,.4"/><path class="cls-4" d="M115.2,23.3c1.3,3.7,5,7.3,8.7,8.6,3.1,1.1,4.4-1.2,3.2-3.9-1.5-3.3-4.5-6.3-7.9-7.8-.7-.3-1.4-.4-2-.4-1.7-.1-2.9,1.2-2,3.5"/><path class="cls-4" d="M44.3,15.2c-3.8,.9-8.1,3.6-9.4,7.5-1.3,4,2.8,5.5,6.1,4.9,4.1-.7,9.2-3.9,10.1-8.3,.6-3.2-2.2-4.4-4.8-4.4-.7,.1-1.4,.2-2,.3"/><path class="cls-4" d="M96.9,19.3c.9,4.4,6,7.5,10.1,8.3,3.3,.6,7.4-.9,6.1-4.9-1.3-3.9-5.6-6.6-9.4-7.5-.6-.1-1.3-.2-1.9-.2-2.7,0-5.5,1.2-4.9,4.3"/><path class="cls-4" d="M63.6,12.4c-3.8,.3-9.1,2.3-9.8,6.6-.8,4.7,5.1,6.4,8.7,6.2,3.9-.2,10.1-2.6,10.1-7.3,0-4-4.8-5.5-8.2-5.5h-.8"/><path class="cls-4" d="M75.4,17.9c0,4.8,6.1,7.1,10.1,7.3,3.6,.2,9.5-1.5,8.7-6.2-.7-4.3-6-6.3-9.8-6.6h-.8c-3.4,0-8.2,1.5-8.2,5.5"/><path class="cls-3" d="M56.4,137.3c1,3,6,3.7,8.6,3.9,1.9,.1,7.6,.2,7.6-2.7,0-3.4-6.4-4.3-8.8-4.4h-1c-2.5-.1-7.3,.4-6.4,3.2"/><path class="cls-3" d="M84.2,134.1c-2.4,.2-8.8,1.1-8.8,4.4,0,3,5.7,2.9,7.6,2.7,2.6-.2,7.6-.9,8.6-3.9,.9-2.8-3.9-3.3-6.4-3.3-.4,0-.7,.1-1,.1"/><path class="cls-3" d="M39.8,133.4c1.7,2.8,5.6,4.3,8.6,5.1,1.3,.3,6.7,1.2,5.7-1.6-1.2-3.2-6.2-5-9.2-5.7-.5-.1-1.5-.3-2.5-.3-1.9,.1-3.7,.6-2.6,2.5"/><path class="cls-3" d="M103.1,131.3c-3,.7-8,2.4-9.2,5.7-1,2.8,4.4,1.9,5.7,1.6,3-.8,6.9-2.3,8.6-5.1,1.2-1.9-.7-2.4-2.6-2.4-1-.1-1.9,.1-2.5,.2"/><path class="cls-3" d="M27,127.7c1.9,2.5,4.8,4.5,7.6,5.8,1.2,.6,4.9,1.6,3.3-.8-1.8-2.9-5.3-5.1-8.4-6.5-.7-.3-1.5-.5-2.1-.5-.9,.1-1.5,.6-.4,2"/><path class="cls-3" d="M118.5,126.3c-3.1,1.4-6.6,3.6-8.4,6.5-1.5,2.4,2.1,1.4,3.3,.8,2.8-1.3,5.7-3.3,7.6-5.8,1.1-1.4,.5-1.9-.4-2-.7,0-1.5,.2-2.1,.5"/><path class="cls-3" d="M12.1,111.3c1.4,2.8,3.4,5.7,5.9,7.6,2.4,1.7,2.3-.6,1.5-2.4-1.4-3.1-3.7-6.5-6.6-8.3-.4-.3-.7-.4-1-.4-1.1-.1-.3,2.5,.2,3.5"/><path class="cls-3" d="M135.1,108c-2.9,1.8-5.2,5.3-6.6,8.3-.8,1.8-.8,4.2,1.5,2.4,2.5-1.9,4.6-4.7,5.9-7.5,.5-1,1.3-3.6,.1-3.6-.2,.1-.5,.2-.9,.4"/><path class="cls-3" d="M7,97.6c.8,3,2.4,6.9,5.2,8.6,3,1.8,2.6-3.3,2.2-4.9-.7-3.1-2.5-8-5.8-9.2-.2-.1-.5-.1-.7-.1-2-.1-1.2,4.4-.9,5.6"/><path class="cls-3" d="M139.4,92c-3.3,1.2-5.1,6.1-5.8,9.2-.4,1.6-.8,6.7,2.2,5,2.8-1.7,4.4-5.6,5.2-8.6,.3-1.2,1.1-5.7-.9-5.7-.3,0-.5,0-.7,.1"/><path class="cls-3" d="M4.2,81.1c.2,2.7,1.1,7.7,4.1,8.7,3.3,1.1,3.4-5.5,3.3-7.3-.2-2.5-1.2-8.9-4.6-8.9h-.1c-3-.1-2.9,5.6-2.7,7.5"/><path class="cls-3" d="M141.1,73.5c-3.4,.1-4.4,6.4-4.6,8.9-.1,1.8,0,8.4,3.3,7.3,3-1,3.8-6,4.1-8.7,.1-1.8,.2-7.5-2.8-7.5h0"/><path class="cls-3" d="M8.3,55.3c-3,1-3.8,6-4.1,8.7-.2,1.9-.3,7.7,2.7,7.6,3.4-.1,4.4-6.4,4.6-8.9,.1-1.7,0-7.5-2.6-7.5-.2,0-.4,0-.6,.1"/><path class="cls-3" d="M136.4,62.7c.2,2.5,1.2,8.8,4.6,8.9,3,.1,2.9-5.7,2.8-7.6-.2-2.7-1.1-7.7-4.1-8.7-.2-.1-.5-.1-.7-.1-2.6,0-2.7,5.8-2.6,7.5"/><path class="cls-3" d="M12.2,38.9c-2.8,1.7-4.4,5.6-5.2,8.6-.4,1.3-1.3,6.6,1.6,5.6,3.3-1.2,5.1-6.1,5.8-9.2,.3-1.4,.7-5.3-1.1-5.3-.3-.1-.6,0-1.1,.3"/><path class="cls-3" d="M133.5,43.8c.7,3.1,2.6,8,5.8,9.2,2.8,1.1,2-4.3,1.6-5.6-.8-3-2.4-6.9-5.2-8.6-.4-.3-.8-.4-1.1-.4-1.7,.1-1.4,4.1-1.1,5.4"/><path class="cls-3" d="M18,26.3c-2.5,1.9-4.6,4.7-5.9,7.5-.6,1.2-1.6,4.8,.8,3.3,2.9-1.8,5.2-5.3,6.6-8.3,.6-1.4,.8-3.1-.2-3.1-.3,0-.7,.1-1.3,.6"/><path class="cls-3" d="M128.5,28.7c1.4,3.1,3.7,6.5,6.6,8.3,2.5,1.5,1.4-2,.8-3.3-1.4-2.8-3.4-5.7-5.9-7.5-.6-.4-1-.6-1.3-.6-1,.1-.8,1.8-.2,3.1"/><path class="cls-3" d="M34.6,11.5c-2.8,1.3-5.7,3.3-7.6,5.8-1.8,2.4,.8,2.2,2.5,1.5,3.1-1.4,6.6-3.6,8.4-6.5,.7-1.2,.3-1.5-.5-1.5-.9,0-2.2,.4-2.8,.7"/><path class="cls-3" d="M110.1,12.3c1.8,2.9,5.3,5.1,8.4,6.5,1.7,.8,4.3,.9,2.5-1.5-1.9-2.5-4.8-4.5-7.6-5.8-.6-.3-1.9-.7-2.8-.7-.8,0-1.2,.4-.5,1.5"/><path class="cls-3" d="M48.4,6.6c-3,.8-6.9,2.3-8.6,5.1-1.8,2.9,3.5,2.5,5,2.1,3-.7,8-2.4,9.2-5.7,.6-1.6-.9-2-2.4-2-1.3,.1-2.6,.3-3.2,.5"/><path class="cls-3" d="M93.9,8.1c1.2,3.2,6.2,5,9.2,5.7,1.5,.4,6.8,.8,5-2.1-1.7-2.8-5.6-4.3-8.6-5.1-.6-.1-2-.4-3.2-.4-1.5,0-2.9,.4-2.4,1.9"/><path class="cls-3" d="M65,3.9c-2.6,.2-7.6,.9-8.6,3.9-1,3.2,5.6,3.4,7.4,3.3,2.4-.2,8.8-1.1,8.8-4.4,0-2.4-3.6-2.8-6-2.8-.7-.1-1.2-.1-1.6,0"/><path class="cls-3" d="M75.4,6.6c0,3.3,6.4,4.3,8.8,4.4,1.8,.1,8.5,0,7.4-3.3-1-3-6-3.7-8.6-3.9-.4,0-1-.1-1.6-.1-2.4,.1-6,.5-6,2.9"/><path class="cls-5" d="M58.9,143c.6,1.1,5.4,1.8,7.3,1.9,.4,0,1.6,.2,2.9,.2h.1c1.7,0,3.4-.2,3.4-1,0-1.7-6.2-2-7.5-2.1h-1.4c-2-.1-5.3,.1-4.8,1"/><path class="cls-5" d="M82.9,141.9c-1.3,.1-7.5,.4-7.5,2.1,0,.8,1.7,1,3.4,1h.1c1.3,0,2.5-.1,2.9-.2,1.9-.1,6.7-.9,7.3-1.9,.5-.9-2.8-1.1-4.8-1.1-.7,.1-1.2,.1-1.4,.1"/><path class="cls-5" d="M45.1,139.7c.9,1.3,5,2.6,7.5,3.1,5.2,1.2,4.8,.1,4.8,.1-.5-1.1-5.7-2.8-8-3.4-.5-.1-2.3-.6-3.5-.6-.7,0-1.2,.2-.8,.8"/><path class="cls-5" d="M98.6,139.5c-2.4,.6-7.6,2.3-8,3.4,0,0-.4,1.1,4.8-.1,2.5-.6,6.6-1.9,7.5-3.2,.4-.6,0-.7-.8-.7-1.1,0-3,.5-3.5,.6"/><path class="cls-5" d="M33,134.4c2.2,1.6,4.7,2.9,7.1,3.9,.6,.3,4.2,1.5,3,.5-2.3-1.9-5.2-3.1-7.9-4.3-.6-.3-2.1-.8-2.6-.8-.3,0-.3,.2,.4,.7"/><path class="cls-5" d="M112.8,134.5c-2.7,1.2-5.6,2.4-7.9,4.3-1.2,1,2.4-.2,3-.5,2.5-1.1,5-2.3,7.1-3.9,.7-.5,.7-.7,.4-.7-.5,0-2,.5-2.6,.8"/><path class="cls-5" d="M17.7,121.4c1.7,2.3,3.9,4.4,6.1,6.1,1.4,1.1,2.7,1.3,1.3-.5-1.9-2.5-4.3-4.9-6.8-6.8-.6-.4-1-.6-1.2-.6-.4,0-.1,.8,.6,1.8"/><path class="cls-5" d="M129.7,120.2c-2.5,1.9-4.9,4.2-6.8,6.8-1.4,1.8-.2,1.6,1.3,.5,2.3-1.7,4.4-3.8,6.1-6.1,.8-1,1.1-1.8,.6-1.8-.2,0-.6,.2-1.2,.6"/><path class="cls-5" d="M7.1,105.8c1.1,2.4,2.5,4.9,4.2,6.9,1.5,1.8,.3-1.2-.2-2.2-1.3-2.6-2.6-5.4-4.6-7.6-.2-.2-.3-.3-.3-.3-.4,0,.7,2.6,.9,3.2"/><path class="cls-5" d="M141.4,102.9c-1.9,2.2-3.3,5-4.6,7.7-.4,.9-1.7,3.9-.2,2.2,1.7-2.1,3-4.5,4.2-6.9,.3-.5,1.3-3.1,.9-3.1,0-.2-.1-.1-.3,.1"/><path class="cls-5" d="M2.6,94.1c.6,2.4,1.6,5.6,2.8,6.8,1.3,1.3,.7-2.8,.4-4.1-.6-2.5-1.7-6.5-3.1-7.3-.1-.1-.2-.1-.3-.1-.8,0-.1,3.7,.2,4.7"/><path class="cls-5" d="M145.3,89.4c-1.4,.9-2.6,4.8-3.1,7.3-.3,1.3-.9,5.5,.4,4.1,1.3-1.3,2.2-4.4,2.8-6.8,.2-1,1-4.7,.1-4.7,0,.1-.1,.1-.2,.1"/><path class="cls-5" d="M0,77.6v.1c0,.7,0,1.3,.1,1.8,.1,2.1,.5,6.1,1.7,6.9,1.3,.8,1.3-4.4,1.2-5.9-.1-2-.6-7-1.9-7.1h0c-.9,0-1.1,2.3-1.1,4.2"/><path class="cls-5" d="M147,73.4c-1.3,0-1.8,5.1-1.9,7.1-.1,1.5-.1,6.7,1.2,5.9,1.2-.8,1.6-4.8,1.7-6.9,0-1.6,.2-6.1-1-6.1h0"/><path class="cls-5" d="M1.7,58.7c-1.2,.8-1.6,4.8-1.7,6.9v1.9c0,1.9,.2,4.3,1,4.2,1.3-.1,1.8-5.1,1.9-7.1,.1-1.4,.1-6-.9-6-.1,.1-.2,.1-.3,.1"/><path class="cls-5" d="M145,64.6c.1,2,.6,7.1,1.9,7.1,1.2,0,1.1-4.5,1-6.1-.1-2.1-.5-6.1-1.7-6.9-.1-.1-.2-.1-.3-.1-1,.1-.9,4.7-.9,6"/><path class="cls-5" d="M5.4,44.2c-1.3,1.3-2.2,4.4-2.8,6.8-.3,1.1-1.1,5.4,.1,4.6,1.4-.8,2.6-4.8,3.1-7.3,.3-1.1,.8-4.4,0-4.4-.1,0-.2,.1-.4,.3"/><path class="cls-5" d="M142.2,48.3c.6,2.5,1.7,6.5,3.1,7.3,1.2,.7,.4-3.6,.1-4.6-.6-2.4-1.6-5.6-2.8-6.8-.2-.2-.3-.3-.4-.3-.8,0-.3,3.3,0,4.4"/><path class="cls-5" d="M11.3,32.4c-1.7,2.1-3,4.5-4.2,6.9-.3,.6-1.6,4.1-.6,2.9,1.9-2.2,3.3-5,4.6-7.7,.4-.7,1.2-2.7,.8-2.7-.1,.1-.3,.2-.6,.6"/><path class="cls-5" d="M136.9,34.6c1.3,2.6,2.7,5.4,4.6,7.6,1.1,1.2-.3-2.3-.6-2.9-1.1-2.4-2.5-4.9-4.2-6.9-.3-.4-.5-.6-.6-.6-.4,.1,.4,2.1,.8,2.8"/><path class="cls-5" d="M23.9,17.6c-2.3,1.7-4.4,3.8-6.1,6.1-1.1,1.5-1.3,2.6,.6,1.2,2.5-1.9,4.9-4.3,6.9-6.8,.7-1,.7-1.3,.4-1.3-.5,0-1.1,.3-1.8,.8"/><path class="cls-5" d="M122.9,18.1c1.9,2.5,4.3,4.9,6.8,6.8,1.8,1.4,1.7,.3,.6-1.2-1.8-2.3-3.9-4.4-6.1-6.1-.7-.5-1.3-.9-1.6-.9-.5,.1-.5,.5,.3,1.4"/><path class="cls-5" d="M40.1,6.8c-2.5,1.1-5,2.3-7.1,3.9-1.8,1.4,1.3,.3,2.2-.1,2.7-1.2,5.6-2.4,7.9-4.3,.4-.3,.3-.4,.1-.4-.7,0-2.7,.7-3.1,.9"/><path class="cls-5" d="M104.9,6.3c2.3,1.9,5.2,3.1,7.9,4.3,.9,.4,4.1,1.5,2.2,.1-2.2-1.7-4.7-2.9-7.1-3.9-.4-.2-2.4-.9-3-.9-.3,0-.3,.1,0,.4"/><path class="cls-5" d="M52.6,2.3c-2.5,.6-6.6,1.9-7.5,3.2-1,1.4,3.5,.4,4.2,.2,2.4-.6,7.6-2.3,8-3.4,0,0,.2-.5-1.1-.5-.6-.1-1.8,.1-3.6,.5"/><path class="cls-5" d="M90.6,2.2c.5,1.1,5.7,2.8,8,3.4,.8,.2,5.3,1.3,4.2-.2-.9-1.3-5-2.6-7.5-3.1-1.8-.4-2.9-.6-3.6-.6-1.3,0-1.1,.5-1.1,.5"/><path class="cls-5" d="M69.1,0c-1.3,0-2.5,.1-2.9,.2-1.9,.1-6.7,.9-7.3,1.9-.6,1.2,5.4,1.1,6.2,1.1,1.3-.1,7.5-.4,7.5-2.1,0-.9-1.7-1.1-3.5-1.1h0"/><path class="cls-5" d="M78.8,0c-1.7,0-3.4,.2-3.4,1,0,1.7,6.2,2,7.5,2.1,.8,.1,6.9,.2,6.2-1.1-.6-1.1-5.4-1.8-7.3-1.9-.4,0-1.7-.1-3-.1h0"/></g><g><path class="cls-6" d="M230.4,14.6h11.3v51.6h-11.3V14.6"/><path class="cls-6" d="M254.4,14.6h11.3v51.6h-11.3V14.6"/><path class="cls-6" d="M278.4,41.7v-.1c0-14.7,11-26.7,26.7-26.7,9.6,0,15.4,3.2,20.2,8l-7.2,8.3c-3.9-3.6-8-5.8-13.1-5.8-8.6,0-14.8,7.2-14.8,16.1v.1c0,8.9,6.1,16.3,14.8,16.3,5.9,0,9.4-2.4,13.5-6.1l7.2,7.3c-5.3,5.7-11.1,9.2-21,9.2-15.1,0-26.3-11.7-26.3-26.6"/><path class="cls-6" d="M335.7,15.7h23.4c6.5,0,11.5,1.8,14.9,5.2,2.8,2.9,4.4,6.9,4.4,11.8v.1c0,8.3-4.5,13.6-11,16l12.5,18.5h-13.1l-11-16.5h-8.8v16.5h-11.3V15.7Zm22.7,25.1c5.5,0,8.6-2.9,8.6-7.3v-.2c0-4.9-3.4-7.4-8.8-7.4h-11.2v14.8l11.4,.1h0"/><path class="cls-6" d="M390,41.7v-.1c0-14.7,11-26.7,26.7-26.7,9.6,0,15.4,3.2,20.2,8l-7.2,8.3c-3.9-3.6-8-5.8-13.1-5.8-8.6,0-14.9,7.2-14.9,16.1v.1c0,8.9,6.1,16.3,14.9,16.3,5.8,0,9.4-2.4,13.4-6.1l7.2,7.3c-5.3,5.7-11.1,9.2-21,9.2-15,0-26.2-11.7-26.2-26.6"/><path class="cls-6" d="M268.8,110c3.6,0,7.2,.2,10.6-.1,2.2-.2,3.9-1.9,4.2-4.1,.4-3.3-.8-5.9-3.9-6.3-3.6-.4-7.2-.1-11-.1v9.3c-.1,.4,0,.7,.1,1.3Zm-.2,7.9v12.4h-8.4v-38.8c7.3,0,14.6-.4,21.9,.1,5.8,.5,9.4,4.6,10.2,10,1,6.5-1.2,11.2-6.7,14.2-.3,.2-.7,.4-1.3,.7,3,4.5,6.1,9,9.4,13.9-3.4,0-6.4,.1-9.3-.1-.6,0-1.3-.8-1.7-1.4-2-2.9-4-5.7-5.8-8.7-1.1-1.8-2.4-2.8-4.5-2.5-1.2,.3-2.4,.2-3.8,.2"/><path class="cls-6" d="M462,122.4c2.8,0,5.4,.1,8,0,5.2-.4,9.3-4.4,9.9-9.5,.7-6.3-2-11.7-7.3-13.1-3.4-.9-7-.7-10.6-1.1v23.7Zm-8.6-31.5c7.2,.4,14.2,0,20.9,1.2,9.4,1.7,15.2,9.9,14.8,19.3-.4,9.8-6.9,17.6-16.5,18.6-6.3,.7-12.6,.1-19.2,.1,0-12.8,0-25.7,0-39.2"/><path class="cls-6" d="M444.8,130.3h-29.3v-39h28.9v7.6h-20.4v7.8h18.1v7.8h-18v8.1h20.8c-.1,2.7-.1,5.1-.1,7.7"/><path class="cls-6" d="M221.8,91.3h28.9v7.6h-20.4v7.8h18v7.8h-17.9v8h20.7v7.7h-29.2c-.1-12.9-.1-25.8-.1-38.9"/><path class="cls-6" d="M178.8,77.9c-.6-1.8-.1-2.6,1.6-2.4H487.2v2.4H178.8"/><path class="cls-6" d="M214.4,123.7c-6.8,8.2-20.7,9.2-28.8,1.9-8.5-7.7-9-21.6-1.1-29.9,7.7-8,22.1-8,29.9,.2-1.7,2-3.5,4.1-5.4,6.3-3.5-3-7.2-5.3-11.8-4.1-2.3,.6-4.7,1.9-6.3,3.7-4.3,4.6-4,12.4,.2,17,4.6,5,10.4,4.7,18-.8,1.8,1.9,3.5,3.7,5.3,5.7"/><path class="cls-6" d="M365.4,115.2v15.1h-8.4v-38.9h29.2v7.6h-20.7v8.2l.1,.1c5.5-.2,11,0,16.5-.1,1.1,0,1.8,.2,1.8,1.6-.1,2.1,0,4.1,0,6.4-6.2,0-12.2,0-18.5,0"/><path class="cls-6" d="M318.1,130.3h-8.7v-31.1h-11.6v-7.9h31.9v7.7h-11.6c0,10.6,0,20.8,0,31.3"/><path class="cls-6" d="M396.9,91.3h8.3v39h-8.3v-39"/><path class="cls-6" d="M338.4,91.3h8.3v39h-8.3v-39"/></g></g></svg>