<?xml version="1.0" encoding="UTF-8"?><svg id="Layer_2" xmlns="http://www.w3.org/2000/svg" viewBox="0 0 123.72 73.23"><defs><style>.cls-1{fill:#004b8d;}</style></defs><g id="Layer_1-2"><path class="cls-1" d="m123.44,38.12c-.85-.45-1.71-.91-2.56-1.36-.09-.05-.22-.06-.32-.05-.33.05-.56-.09-.63-.41-.15-.74-.29-1.49-.45-2.24-.05-.24,0-.43.11-.64,1.34-2.49,2.68-4.99,4.02-7.48.21-.39.15-.75-.15-1.03-.34-.31-.82-.37-1.17-.17-.14.08-.3.14-.45.14-8.49,0-16.99,0-25.48.01-.26,0-.37-.08-.46-.33-1.44-4.15-3.57-7.91-6.36-11.3-.16-.19-.32-.28-.57-.27-3.34,0-6.68,0-10.02,0h-.37c1.32,1.85,2.46,3.74,3.42,5.72.96,1.98,1.76,4.01,2.36,6.14-.71.08-.73.08-.85-.32-1.24-4.09-3.15-7.84-5.66-11.29-.13-.18-.26-.25-.48-.25-2.61,0-5.22,0-7.82,0-.1,0-.19.01-.32.02,1.53,3.86,2.7,7.78,3.49,11.85-.14,0-.22.02-.3.02-.45,0-.45,0-.54-.41-.78-3.83-1.91-7.55-3.34-11.19-.09-.22-.19-.29-.42-.29-2.08,0-4.16,0-6.25,0h-.35v11.86h-.74v-11.86h-.31c-2.06,0-4.12,0-6.18,0-.23,0-.34.07-.42.29-1.02,2.61-1.88,5.27-2.56,7.98-.27,1.1-.51,2.2-.74,3.31-.05.24-.14.34-.38.31-.13-.02-.26,0-.44,0,.77-4.09,1.93-8.02,3.43-11.87-.08-.01-.11-.02-.14-.02-2.69,0-5.38,0-8.07,0-.12,0-.29.11-.36.21-.88,1.35-1.8,2.69-2.61,4.08-1.33,2.31-2.33,4.77-3.11,7.31-.03.1-.1.24-.17.25-.2.03-.41.01-.66.01.63-2.17,1.42-4.21,2.38-6.18.97-1.98,2.1-3.86,3.41-5.7h-.36c-3.28,0-6.56,0-9.83,0-.25,0-.41.07-.57.27-2.78,3.38-4.91,7.13-6.35,11.27-.1.28-.23.37-.52.37-4.93-.01-9.85,0-14.78,0-.14,0-.28.02-.42.02v.41h110.91c-.09.18-.15.29-.21.41-3.64,6.8-7.27,13.6-10.9,20.4-.13.25-.28.34-.57.34-36.61,0-73.22,0-109.84,0-.12,0-.25-.01-.37-.02v.43c8.59,0,17.17,0,25.76,0,.31,0,.4.13.48.38,1.19,3.97,3.03,7.62,5.47,10.97.15.21.31.28.56.28,3.44,0,6.89,0,10.33,0,.11,0,.21,0,.37-.02-2.3-3.62-4.04-7.44-5.14-11.54.61-.17.71-.12.87.43,1.13,3.86,2.79,7.47,4.96,10.85.13.21.27.29.52.29,2.76,0,5.52,0,8.29,0h.35c-1.36-3.81-2.45-7.64-3.17-11.58.62-.12.7-.08.78.36.71,3.72,1.74,7.34,3.03,10.9.09.24.2.33.46.33,2.17-.01,4.35,0,6.52,0,.11,0,.22-.01.36-.02v-6.76c0-1.5,0-3.01,0-4.51,0-.1.03-.29.07-.3.19-.03.39-.03.58,0,.05,0,.07.21.07.33,0,3.63,0,7.26,0,10.89,0,.3.08.38.38.38,2.25-.01,4.49-.01,6.74,0,.28,0,.4-.09.48-.35.56-1.73,1.19-3.44,1.68-5.2.53-1.92.93-3.88,1.39-5.82.02-.1.11-.24.19-.26.17-.04.36-.01.58-.01-.73,3.99-1.82,7.82-3.2,11.6.13.01.2.02.27.02,2.76,0,5.52,0,8.29,0,.19,0,.3-.08.39-.23,1.47-2.3,2.74-4.7,3.72-7.24.49-1.26.88-2.57,1.32-3.85.04-.11.12-.27.21-.29.19-.05.4-.01.65-.01-.55,2.11-1.27,4.08-2.13,6.01-.85,1.93-1.86,3.77-3.01,5.61h.43c3.46,0,6.93,0,10.39,0,.29,0,.47-.09.64-.32,2.43-3.36,4.26-7.01,5.45-10.98.06-.2.12-.34.38-.34,4.59,0,9.17,0,13.76.01.13,0,.28.06.38.14.71.59,1.36.46,1.77-.34,1.28-2.49,2.55-4.98,3.84-7.47.06-.12.19-.25.32-.31.7-.34,1.41-.67,2.12-1,.31-.15.67,0,.83.31.05.1.13.22.23.28.81.48,1.62.94,2.43,1.41.2.11.36.07.48-.12.23-.38.45-.76.68-1.14.15-.24.1-.4-.14-.52Zm-.81-12.77c.05-.08.3-.12.42-.07.17.06.22.26.1.42-.23.32-.48.62-.74.95-.08-.04-.2-.09-.34-.15.19-.4.35-.79.56-1.14Zm-.75,1.46c.14.06.26.12.42.19-.3.57-.59,1.12-.9,1.71-.16-.08-.27-.14-.41-.21.3-.56.58-1.1.89-1.68Zm-1.17,2.21c.09.04.16.06.22.09.06.02.11.06.2.1-.08.16-.15.31-.23.46-.48.92-.98,1.83-1.44,2.75-.14.27-.29.37-.67.26.65-1.24,1.29-2.44,1.93-3.66Zm-6.95,14.12c-.46.86-.93,1.72-1.38,2.58-.09.17-.09.39-.16.57-.05.12-.12.26-.22.32-.07.04-.27-.01-.32-.08-.06-.1-.08-.29-.03-.39,1.03-1.97,2.08-3.92,3.13-5.88.23-.43.46-.87.71-1.33.15.13.25.22.37.32-.7,1.3-1.39,2.59-2.09,3.88Zm2.59-4.42c-.09.17-.25.29-.33.39-.32,0-.43-.18-.32-.41.2-.41.42-.81.63-1.21.74-1.4,1.48-2.8,2.22-4.2.07-.12.14-.28.25-.34.13-.07.31-.06.47-.08,0,.15.07.33,0,.44-.4.78-.83,1.54-1.24,2.31-.56,1.03-1.11,2.07-1.68,3.09Zm3.01-1.33c-.16.21-.3.39-.55.5-.59.26-1.17.54-1.76.82-.08.04-.17.07-.25.1-.02-.02-.04-.04-.05-.06.13-.24.26-.48.39-.74.07.02.13.04.18.06.21.06.39,0,.51-.19.12-.2.1-.4-.07-.56-.1-.09-.17-.15-.09-.3.28-.49.54-.99.81-1.51.28.07.58.13.72-.21.12-.28-.03-.47-.27-.63.13-.24.26-.47.38-.7.02,0,.05,0,.07.01.1.51.16,1.03.32,1.53.23.71.11,1.31-.34,1.89Z"/><path class="cls-1" d="m77.8,11.99c.16.21.33.29.59.29,3.29,0,6.57,0,9.86,0,.11,0,.22-.01.36-.02-.05-.07-.07-.11-.09-.14-.57-.59-1.13-1.2-1.72-1.78-3.14-3.06-6.71-5.47-10.72-7.24-3.74-1.65-7.65-2.65-11.72-2.98-.37-.03-.73-.08-1.09-.12h-.68c.78.36,1.59.68,2.35,1.09,5.07,2.7,9.34,6.38,12.86,10.91Z"/><path class="cls-1" d="m44.08,12.28c.21,0,.34-.08.46-.24,2.18-2.84,4.69-5.33,7.53-7.5,2.31-1.76,4.74-3.31,7.44-4.42.06-.03.11-.08.17-.12h-.37c-.09.02-.17.06-.26.06-1.65.09-3.28.3-4.89.63-7.84,1.59-14.45,5.34-19.89,11.2-.1.11-.19.22-.32.37.14.01.22.02.3.02,3.28,0,6.55,0,9.83,0Z"/><path class="cls-1" d="m38.92,43.28c.23,0,.36-.07.49-.27,2.03-3.32,4.08-6.63,6.12-9.95.06-.09.12-.18.22-.32.02.12.04.17.04.23.09,1.03.17,2.05.26,3.08.12,1.43.24,2.85.36,4.28.07.82.14,1.64.2,2.46.02.2.09.28.31.28,1.21.02,2.43.04,3.65.08.24,0,.38-.07.51-.28,2.93-4.92,5.86-9.83,8.8-14.75.05-.08.09-.17.15-.28-.1,0-.15-.02-.2-.02-1.3,0-2.6,0-3.9,0-.2,0-.28.1-.37.25-1.79,3.09-3.59,6.18-5.38,9.27-.06.1-.14.2-.26.37-.11-1.72-.22-3.35-.32-4.97-.1-1.62-.21-3.24-.32-4.9-.13,0-.22-.01-.32-.01-1.18,0-2.37,0-3.56,0-.21,0-.33.07-.44.25-1.84,2.88-3.69,5.76-5.53,8.64-.18.27-.35.55-.53.82-.03,0-.06-.01-.09-.02-.11-3.22-.21-6.44-.32-9.65h-4.56c.35,5.15.71,10.27,1.06,15.41h.34c1.2,0,2.39,0,3.59,0Z"/><path class="cls-1" d="m66.94,32.54c1.5-1.62,3.31-2.34,5.51-1.81,1.35.32,2.28,1.07,2.47,2.53.02.17.12.19.25.19,1.4,0,2.8,0,4.2,0,.19,0,.28-.07.27-.24-.04-.59-.01-1.21-.17-1.77-.42-1.54-1.46-2.64-2.84-3.39-2.08-1.13-4.32-1.31-6.6-.9-3.17.57-5.66,2.28-7.59,4.81-1.18,1.54-1.92,3.26-2.01,5.22-.06,1.39.14,2.71.93,3.9.96,1.46,2.41,2.14,4.06,2.44,1.54.28,3.09.23,4.64,0,2.54-.38,4.78-1.37,6.57-3.25.9-.94,1.59-2.02,2.1-3.25-.07-.02-.1-.03-.13-.03-1.38,0-2.76,0-4.14,0-.09,0-.22.1-.28.18-.52.82-1.18,1.51-1.99,2.04-1.32.86-2.76,1.25-4.32,1.02-2.17-.32-3.14-2.25-2.79-4.18.24-1.37.93-2.53,1.86-3.54Z"/><path class="cls-1" d="m84.88,42.74c.62-.85,1.22-1.71,1.84-2.56.08-.11.26-.23.39-.23,1.97-.01,3.94,0,5.9-.01.19,0,.29.05.33.26.17.84.37,1.67.53,2.5.04.22.14.26.33.26,1.31,0,2.62,0,3.93,0,.08,0,.15-.02.22-.03,0-.05.01-.07.01-.09-1.11-5.07-2.22-10.14-3.33-15.21-.05-.21-.16-.25-.34-.25-1.06,0-2.12,0-3.18,0-.2,0-.32.07-.43.23-3.44,4.66-6.88,9.31-10.33,13.96-.33.44-.65.89-1,1.35.06.02.09.03.12.03,1.56,0,3.11,0,4.67,0,.11,0,.26-.11.33-.21Zm7.08-10.45s.05,0,.08,0c.25,1.37.49,2.75.75,4.16h-3.71c.99-1.43,1.93-2.79,2.88-4.16Z"/><path class="cls-1" d="m79.16,59.27c-.11,0-.26.1-.34.19-.76,1-1.46,2.04-2.25,3.02-2.8,3.47-6.03,6.49-9.85,8.82-1.16.71-2.4,1.29-3.6,1.93,10.97-.74,19.94-5.39,26.98-13.95-.13-.01-.16-.02-.19-.02-3.59,0-7.17,0-10.76,0Z"/><path class="cls-1" d="m55.77,71.28c-4.92-2.99-8.86-7.01-12.11-11.74-.14-.2-.27-.29-.52-.29-3.43.01-6.86,0-10.29,0-.1,0-.19,0-.39.02,7.08,8.58,16.06,13.23,27.11,13.89-.04-.02-.09-.04-.13-.06-1.22-.61-2.5-1.13-3.66-1.84Z"/><path class="cls-1" d="m77.25,60.39c.26-.35.51-.71.78-1.1-.09-.01-.13-.02-.17-.02-2.73,0-5.46,0-8.19,0-.22,0-.27.12-.33.28-.84,2.18-1.78,4.32-2.87,6.39-1.23,2.36-2.56,4.66-4.34,6.66-.03.03-.04.07-.1.16.16-.05.26-.08.36-.12,1.65-.6,3.19-1.42,4.66-2.39,4.02-2.64,7.35-5.99,10.18-9.85Z"/><path class="cls-1" d="m58.42,70.26c-2.17-3.35-3.8-6.97-5.22-10.68-.09-.24-.2-.32-.46-.32-2.68.01-5.36,0-8.04,0-.1,0-.19,0-.34.02.09.13.15.23.21.32,1.63,2.33,3.47,4.48,5.54,6.43,1.95,1.85,4.05,3.5,6.38,4.86,1.14.66,2.32,1.24,3.63,1.7-.32-.42-.61-.78-.88-1.15-.28-.38-.55-.77-.81-1.17Z"/><path class="cls-1" d="m27.26,43.04c1.22-4.51,2.45-9.02,3.68-13.53.16-.58.31-1.17.47-1.76-.09-.01-.14-.03-.18-.03-1.28,0-2.55,0-3.83,0-.22,0-.25.12-.29.28-1.22,4.71-2.43,9.41-3.65,14.11-.11.41-.21.83-.32,1.26.14,0,.23.02.32.02,1.12,0,2.25-.01,3.37,0,.28,0,.37-.11.43-.35Z"/><path class="cls-1" d="m68.77,11.95c.11.25.23.33.5.33,2.47-.01,4.95,0,7.42,0,.11,0,.22,0,.42-.02-4.08-5.03-8.84-9.04-14.75-11.58-.01.02-.03.05-.04.07.39.5.8.99,1.17,1.51,2.17,3.01,3.83,6.29,5.27,9.69Z"/><path class="cls-1" d="m45.33,12.2s.03.05.05.08h.28c2.47,0,4.95,0,7.42,0,.29,0,.43-.09.54-.36,1.16-2.81,2.5-5.53,4.15-8.09.67-1.04,1.42-2.04,2.18-3.11-5.9,2.58-10.63,6.55-14.61,11.48Z"/><path class="cls-1" d="m61.53,59.28v12.8s.06.02.09.03c3.15-3.83,5.21-8.26,7.07-12.83h-7.16Z"/><path class="cls-1" d="m60.69,72.13s.05-.02.07-.03v-12.82h-6.92c1.82,4.56,3.82,8.98,6.85,12.85Z"/><path class="cls-1" d="m61.88,12.28c1.95-.01,3.89,0,5.84,0,.11,0,.22,0,.38-.02-.21-.48-.39-.91-.58-1.33-1.34-2.97-2.84-5.85-4.77-8.49-.3-.42-.64-.8-.97-1.2-.04-.05-.13-.09-.17-.08-.05.02-.08.1-.1.17-.02.07,0,.14,0,.22,0,3.45,0,6.9,0,10.35,0,.29.07.39.38.39Z"/><path class="cls-1" d="m54.34,12.08c-.02.05-.02.11-.03.18h6.44c.01-.06.02-.1.02-.14,0-3.58,0-7.15,0-10.73,0-.08-.06-.15-.09-.23-.07.04-.17.07-.22.14-.43.55-.88,1.09-1.28,1.67-1.97,2.85-3.5,5.94-4.84,9.12Z"/><path class="cls-1" d="m99.17,48.1c-.48,0-.88.16-1.21.48-.33.32-.49.72-.49,1.18s.16.86.49,1.18c.33.32.73.48,1.21.48s.88-.16,1.21-.48.49-.72.49-1.18-.17-.86-.49-1.18c-.33-.32-.73-.48-1.21-.48Zm.97,2.65c-.26.27-.59.4-.97.4s-.7-.13-.97-.4c-.26-.27-.39-.59-.39-.98s.13-.72.39-.98c.26-.27.59-.4.97-.4s.71.13.97.4.39.59.39.98-.13.72-.39.98Z"/><path class="cls-1" d="m99.69,49.74c.12-.1.18-.24.18-.42,0-.16-.06-.29-.18-.38-.12-.09-.28-.14-.49-.14h-.77v1.93h.3v-.83h.32s.5.83.5.83h.35l-.55-.85c.14-.02.25-.07.34-.14Zm-.96-.1v-.59h.41c.14,0,.24.02.31.07.07.05.1.11.1.21,0,.11-.03.19-.1.24-.07.05-.17.08-.31.08h-.41Z"/></g></svg>