<?xml version="1.0" encoding="UTF-8"?><svg id="Layer_2" xmlns="http://www.w3.org/2000/svg" viewBox="0 0 242.97 81.62"><defs><style>.cls-1{fill-rule:evenodd;}.cls-1,.cls-2{fill:#fff;}.cls-2{isolation:isolate;}</style></defs><g id="Layer_2-2"><path class="cls-1" d="m229.16,50.91c.91,1.02,2.01,1.54,3.31,1.54s2.43-.51,3.4-1.54c.97-1.02,1.46-2.34,1.46-3.94s-.47-2.95-1.42-4.04c-.95-1.09-2.08-1.63-3.4-1.63s-2.44.54-3.35,1.61-1.36,2.42-1.36,4.04.46,2.94,1.36,3.96Zm11.09-11.44c1.82,1.89,2.73,4.31,2.73,7.28s-.93,5.44-2.8,7.44c-1.87,2-3.99,3-6.38,3s-4.36-.98-5.93-2.93v2.63h-5.61v-27.48h5.61v9.78c1.55-1.7,3.54-2.56,5.98-2.56s4.57.94,6.39,2.83Zm-25.17,14.76c-2.02,1.98-4.56,2.96-7.61,2.96s-5.59-.99-7.61-2.96c-2.02-1.98-3.03-4.41-3.03-7.3s1.01-5.33,3.03-7.31c2.02-1.99,4.56-2.98,7.61-2.98s5.59.99,7.61,2.98c2.02,1.99,3.03,4.43,3.03,7.31s-1.01,5.32-3.03,7.3Zm-11.2-3.31c.93,1.02,2.13,1.54,3.59,1.54s2.65-.51,3.59-1.54c.93-1.02,1.4-2.35,1.4-3.98s-.47-2.96-1.4-4c-.93-1.04-2.13-1.56-3.59-1.56s-2.65.52-3.59,1.56c-.93,1.04-1.4,2.37-1.4,4s.47,2.96,1.4,3.98Zm-17.29-18.79c0-.91.32-1.68.95-2.31.64-.63,1.41-.94,2.34-.94s1.7.31,2.34.94c.64.63.95,1.4.95,2.31s-.32,1.68-.95,2.31-1.41.94-2.34.94-1.7-.31-2.34-.94-.95-1.4-.95-2.31Zm.49,25.14v-20.33h5.61v20.77c0,2.17-.67,3.89-2,5.15-1.33,1.26-2.97,1.89-4.9,1.89s-3.77-.79-5.52-2.37l2.58-4.11c.75.86,1.58,1.3,2.51,1.3.5,0,.91-.19,1.23-.57.32-.38.49-.96.49-1.72Zm-12.98-15.07c-.77-.64-1.71-.96-2.82-.96s-2.13.33-3.05,1c-.92.67-1.46,1.57-1.61,2.7h8.82c-.12-1.19-.57-2.1-1.35-2.74Zm5.38,11.81c-2.27,2.12-4.93,3.18-7.98,3.18s-5.58-.93-7.57-2.8c-1.99-1.86-2.99-4.36-2.99-7.5s1.02-5.63,3.05-7.48c2.03-1.85,4.43-2.78,7.2-2.78s5.12.83,7.05,2.48c1.93,1.65,2.9,3.93,2.9,6.81v2.96h-14.66c.17,1.09.75,1.98,1.72,2.67.97.69,2.07,1.04,3.29,1.04,1.97,0,3.59-.65,4.86-1.96l3.14,3.37Zm-29.54-1.74c1.87,0,3.55-.93,5.05-2.78l3.33,3.7c-2.59,2.67-5.4,4-8.41,4s-5.57-.94-7.65-2.83c-2.08-1.89-3.12-4.36-3.12-7.41s1.05-5.53,3.16-7.44c2.11-1.91,4.61-2.87,7.5-2.87,1.45,0,2.91.3,4.39.89,1.48.59,2.79,1.47,3.91,2.63l-2.92,3.78c-.65-.77-1.44-1.36-2.37-1.78-.93-.42-1.86-.63-2.79-.63-1.47,0-2.74.48-3.8,1.43-1.06.95-1.59,2.27-1.59,3.96s.53,3.01,1.59,3.94c1.06.94,2.3,1.41,3.72,1.41Zm-21.05-20.15c0-.91.32-1.68.95-2.31.64-.63,1.41-.94,2.34-.94s1.7.31,2.34.94c.64.63.95,1.4.95,2.31s-.32,1.68-.95,2.31c-.64.63-1.41.94-2.34.94s-1.7-.31-2.34-.94-.95-1.4-.95-2.31Zm6.1,24.77h-5.61v-19.92h5.61v19.92Zm-23.89-11.11v11.11h-5.61v-19.92h5.61v2.22c1.7-1.7,3.6-2.56,5.72-2.56s3.9.74,5.33,2.22c1.43,1.48,2.15,3.46,2.15,5.93v12.11h-5.61v-11.26c0-3.06-1.13-4.59-3.4-4.59-1.12,0-2.1.4-2.94,1.2-.84.8-1.25,1.98-1.25,3.54Z"/><path id="Combined-Shape" class="cls-2" d="m19.19,44.29L0,30.6h36.16c-.7.7-1.58,1.58-2.17,2.05-1.35,1.23-4.15,2.87-4.68,3.57-.59.76-.94,1.58-1.35,2.57-.35.76-1.81,2.87-3.1,4.04-.82.82-3.8.99-5.68,1.46Zm25.92-13.69h40.9l-31.13,22.24c0-.29,0-.53-.06-.82-.12-.59-.41-1.17-.53-1.76,2.4-.76,2.22-4.92.29-6.09.99-.41,2.63-2.4,1.87-4.04-.35-.76-1.35-1.46-2.11-1.87-1.46-.76-3.28-.41-4.86,0-1.35.35-3.45-.23-5.62-.76s-1.23-3.45-.59-4.8c.59-.94.82-.76,1.81-2.11Z"/><path id="Combined-Shape-Copy-2" class="cls-2" d="m31.6,34.46L42.6,0l12.75,38.88c-.3-.22-.64-.44-.92-.6-1.56-.78-3.29-.45-4.87-.04-1.35.35-3.42-.21-5.65-.75-2.18-.53-1.24-3.43-.62-4.74.68-1.2.91-.59,2.67-3.42.53-.88.82-2.06,1.06-3.12,0,0,.18-2.06-.18-3.06-.41-1-1.23-2.18-1.82-2.29s-.76,0-1.18.06c-1.59,3.18-3.59,6.41-6.41,8.47,0,0-2.23,2.23-3.35,3.23-.65.59-1.59,1.23-2.47,1.82Zm24.74,7.88l12.9,39.28-26.41-19.35c.77-.06,1.42-.18,2.08-.24,2.73-.59,5.28-.06,6.71-2.02.65-.95.71-2.49.71-3.86,1.13-.36,2.91-2.37,2.49-4.15-.12-.59-.39-1.15-.51-1.75,2.41-.81,2.23-4.93.27-6.09.54-.2,1.34-.95,1.76-1.83Z"/></g></svg>